<?xml version="1.0" encoding="utf-8"?>
<!-- Generator: Adobe Illustrator 24.3.0, SVG Export Plug-In . SVG Version: 6.00 Build 0)  -->
<svg version="1.1" id="Layer_1" xmlns="http://www.w3.org/2000/svg" xmlns:xlink="http://www.w3.org/1999/xlink" x="0px" y="0px"
	 viewBox="0 0 688.6 688.6" style="enable-background:new 0 0 688.6 688.6;" xml:space="preserve">
<style type="text/css">
	.st0{fill:#0D1C68;}
	.st1{fill-rule:evenodd;clip-rule:evenodd;fill:url(#SVGID_1_);}
	.st2{fill-rule:evenodd;clip-rule:evenodd;fill:url(#SVGID_2_);}
	.st3{fill-rule:evenodd;clip-rule:evenodd;fill:url(#SVGID_3_);}
	.st4{fill:url(#SVGID_4_);}
	.st5{fill:url(#SVGID_5_);}
	.st6{fill:url(#SVGID_6_);}
	.st7{fill:url(#SVGID_7_);}
	.st8{fill:url(#SVGID_8_);}
	.st9{fill:url(#SVGID_9_);}
	.st10{fill:url(#SVGID_10_);}
	.st11{fill:url(#SVGID_11_);}
	.st12{fill:url(#SVGID_12_);}
</style>
<image style="overflow:visible;" width="1280" height="640" xlink:href="B4425EC1.jpg"  transform="matrix(1 0 0 1 -9276.168 -7889.7588)">
</image>
<g>
	<g>
		<g>
			<path class="st0" d="M110.5,239c1.1,1,1.9,2.1,2.6,3.2c0.7,1.1,1.1,2.3,1.3,3.5c0.2,1.2,0.2,2.5-0.1,3.7
				c-0.3,1.3-0.8,2.5-1.6,3.8c-0.9,1.4-1.9,2.5-3.2,3.5c-1.2,0.9-2.6,1.5-4.1,1.8c-1.5,0.3-3.1,0.2-4.8-0.1
				c-1.7-0.4-3.5-1.1-5.3-2.3c-1.8-1.1-3.3-2.4-4.4-3.7c-1.2-1.4-2-2.8-2.4-4.3c-0.5-1.5-0.6-3-0.3-4.6c0.2-1.6,0.8-3.1,1.8-4.6
				c0.8-1.3,1.8-2.4,2.9-3.2c1.1-0.8,2.2-1.4,3.4-1.8c1.2-0.3,2.4-0.4,3.6-0.3c1.2,0.1,2.4,0.5,3.6,1l-2.8,4.5
				c-1.4-0.5-2.7-0.5-3.9,0c-1.2,0.4-2.2,1.2-2.8,2.3c-1.2,1.9-1.4,3.7-0.6,5.4c0.8,1.7,2.3,3.3,4.7,4.8c2.4,1.5,4.5,2.2,6.4,2.2
				s3.3-0.9,4.4-2.7c0.8-1.3,1.1-2.6,0.9-3.9s-0.9-2.5-2.1-3.6L110.5,239z"/>
			<path class="st0" d="M124.6,235.4c-0.9,1.2-1.9,2.1-3,2.8c-1.1,0.7-2.2,1.1-3.4,1.2c-1.2,0.1-2.4,0-3.6-0.4
				c-1.2-0.4-2.4-1-3.6-1.9c-1.2-0.9-2.1-1.9-2.8-2.9c-0.7-1.1-1.2-2.2-1.4-3.4c-0.2-1.2-0.1-2.4,0.2-3.6c0.3-1.2,0.9-2.4,1.8-3.6
				c0.9-1.2,1.8-2.1,2.9-2.7c1.1-0.6,2.2-1,3.4-1.2s2.4,0,3.6,0.3c1.2,0.4,2.5,1,3.7,1.9c1.2,0.9,2.1,1.9,2.8,3
				c0.7,1.1,1.1,2.2,1.3,3.4c0.2,1.2,0.1,2.4-0.2,3.6C126.1,233.1,125.5,234.3,124.6,235.4z M121.3,232.9c1.8-2.4,1.2-4.7-1.9-7
				c-3-2.3-5.4-2.2-7.2,0.2c-1.8,2.4-1.2,4.7,1.8,7C117.1,235.4,119.5,235.3,121.3,232.9z"/>
			<path class="st0" d="M145.6,209.6l-8.4-7.6c-0.8-0.8-1.7-1.2-2.6-1.3c-0.9-0.1-1.6,0.2-2.2,0.9c-0.6,0.7-0.8,1.5-0.7,2.4
				c0.2,0.9,0.7,1.8,1.5,2.6l8.3,7.5l-3.3,3.7l-8.3-7.5c-0.6-0.5-1.1-0.9-1.5-1.1c-0.4-0.2-0.8-0.4-1.2-0.4c-0.4,0-0.7,0.1-1.1,0.3
				c-0.3,0.2-0.7,0.5-1,0.9c-1.3,1.5-1.1,3,0.7,4.7l8.4,7.6l-3.3,3.7l-13.9-12.5l3.1-3.4l2,1.8c-0.5-1.3-0.6-2.4-0.4-3.4
				c0.2-1,0.8-1.9,1.6-2.8c0.4-0.5,0.8-0.9,1.2-1.2c0.4-0.3,0.8-0.5,1.3-0.6c0.4-0.1,0.9-0.2,1.4-0.2c0.5,0,1.1,0,1.7,0.1
				c-0.4-1.1-0.6-2.1-0.3-3c0.2-0.9,0.7-1.8,1.5-2.7c0.6-0.7,1.3-1.2,2.1-1.6c0.8-0.4,1.5-0.6,2.3-0.6c0.8,0,1.6,0.1,2.4,0.4
				c0.8,0.3,1.5,0.7,2.1,1.3l9.6,8.7L145.6,209.6z"/>
			<path class="st0" d="M166.7,189.8l-7.5-8.4c-0.8-0.8-1.6-1.4-2.4-1.5c-0.9-0.2-1.6,0-2.3,0.6c-0.7,0.6-1,1.4-0.9,2.4
				c0.1,1,0.5,1.9,1.2,2.7l7.4,8.3l-3.7,3.3l-7.5-8.3c-0.5-0.6-1-1-1.4-1.3c-0.4-0.3-0.8-0.5-1.1-0.5c-0.4,0-0.7,0-1.1,0.2
				c-0.4,0.2-0.7,0.4-1.1,0.8c-1.5,1.3-1.4,2.9,0.2,4.7l7.6,8.4l-3.7,3.3L138,190.6l3.4-3.1l1.8,2c-0.4-1.4-0.4-2.5,0-3.4
				c0.4-0.9,1-1.8,1.9-2.6c0.5-0.4,0.9-0.8,1.4-1c0.4-0.3,0.9-0.4,1.3-0.5c0.5-0.1,0.9-0.1,1.5-0.1c0.5,0,1.1,0.2,1.7,0.3
				c-0.3-1.1-0.3-2.1,0-3c0.3-0.9,0.9-1.8,1.8-2.6c0.7-0.6,1.4-1.1,2.2-1.4c0.8-0.3,1.6-0.4,2.4-0.4c0.8,0.1,1.6,0.3,2.3,0.6
				c0.7,0.4,1.4,0.9,2,1.5l8.7,9.6L166.7,189.8z"/>
			<path class="st0" d="M182,178l-1.6-2.1c0.2,2.4-0.7,4.4-2.8,6c-0.7,0.6-1.5,0.9-2.3,1.1c-0.8,0.2-1.6,0.2-2.4,0.1
				c-0.8-0.2-1.6-0.5-2.3-0.9c-0.8-0.5-1.4-1.1-2.1-2l-7.4-9.8l3.9-3l6.9,9.2c1.4,1.9,2.9,2.2,4.6,0.9c1-0.8,1.5-1.6,1.6-2.7
				c0-1-0.3-2-1.1-3l-6.5-8.6l3.9-2.9l11.2,14.9L182,178z"/>
			<path class="st0" d="M197.8,167.3l-6.1-9.5c-0.8-1.2-1.5-1.9-2.2-2.1c-0.7-0.2-1.5,0.1-2.5,0.7c-2.1,1.4-2.4,3.3-0.9,5.7l5.8,9
				l-4.1,2.7l-10.1-15.7l4-2.5l1.5,2.3c-0.1-1.2,0.1-2.3,0.6-3.3c0.5-1,1.4-1.9,2.7-2.7c0.7-0.5,1.5-0.8,2.3-1
				c0.8-0.2,1.5-0.2,2.3,0c0.7,0.2,1.5,0.5,2.1,0.9s1.3,1.1,1.8,2l7,10.9L197.8,167.3z"/>
			<path class="st0" d="M193.9,145.2l-2.3-4l4.3-2.5l2.3,4L193.9,145.2z M204.3,163.3l-9.3-16.2l4.3-2.5l9.3,16.2L204.3,163.3z"/>
			<path class="st0" d="M214.7,143.7l4-2.1l2.4,4.7c0.5,0.9,0.8,1.8,0.9,2.7c0.2,0.9,0.1,1.8-0.1,2.7c-0.2,0.9-0.7,1.7-1.3,2.5
				c-0.7,0.8-1.6,1.5-2.7,2.1c-1.2,0.6-2.3,1-3.4,1.1c-1,0.1-2,0-2.8-0.4c-0.9-0.3-1.6-0.8-2.3-1.5c-0.7-0.7-1.2-1.5-1.7-2.4
				l-7.6-14.8l4.3-2.2l2.3,4.5l9.1-4.7l1.6,3.1l-9.1,4.7l3.5,6.8c0.5,1.1,1.2,1.8,1.8,2.1c0.7,0.4,1.5,0.3,2.4-0.1
				c0.9-0.4,1.4-1.1,1.5-1.8c0.1-0.8-0.1-1.7-0.6-2.7L214.7,143.7z"/>
			<path class="st0" d="M236.4,144.6c0,0.9-0.3,1.8-1,2.6c-0.7,0.8-1.5,1.4-2.6,1.9c-0.9,0.4-1.8,0.6-2.7,0.6s-1.7-0.1-2.5-0.4
				c-0.8-0.3-1.5-0.8-2.1-1.4c-0.6-0.6-1.2-1.4-1.6-2.4l-4.8-11.1l4.5-2l4.5,10.4c0.9,2.1,2.3,2.8,4.3,2c1-0.5,1.8-1.1,2.1-2
				c0.4-0.9,0.4-1.8,0-2.7l-4.5-10.4l4.5-2l7.6,17.6c0.5,1.2,0.8,2.4,0.8,3.5c0,1.1-0.2,2.2-0.6,3.1c-0.4,1-1,1.8-1.9,2.6
				c-0.8,0.8-1.8,1.4-2.9,1.9c-2.5,1.1-4.7,1.3-6.5,0.5c-1.8-0.7-3.2-2.2-4.2-4.5l4.2-1.8c0.4,1,1.1,1.7,1.9,2
				c0.8,0.3,1.9,0.2,3-0.3c0.4-0.2,0.8-0.4,1.1-0.8c0.3-0.3,0.5-0.7,0.7-1.2c0.2-0.4,0.2-0.9,0.2-1.5c0-0.5-0.2-1.1-0.4-1.6
				L236.4,144.6z"/>
			<path class="st0" d="M262,119.4c-0.5-1.2-1.2-2-2.2-2.3c-1-0.4-2.2-0.3-3.8,0.2c-2.9,0.9-4,2.3-3.4,4.2c0.2,0.7,0.7,1.2,1.4,1.5
				c0.7,0.3,1.8,0.4,3.2,0.3c1.7-0.1,3.1-0.2,4.3-0.2c1.2,0,2.4,0,3.5,0.1c0.6,0.1,1.2,0.2,1.8,0.4c0.6,0.2,1.1,0.5,1.6,0.9
				c0.5,0.4,0.9,0.9,1.3,1.5c0.4,0.6,0.7,1.4,1,2.4c0.4,1.2,0.4,2.3,0.2,3.3c-0.2,1-0.6,2-1.3,2.9c-0.6,0.9-1.5,1.6-2.5,2.3
				c-1,0.7-2.1,1.2-3.4,1.6c-3.5,1.1-6.3,1.2-8.5,0.3c-2.2-0.8-3.7-2.6-4.6-5.2l4.9-1.5c0.4,1.2,1.2,2,2.4,2.5c1.2,0.4,2.5,0.4,4,0
				c1.6-0.5,2.7-1.1,3.4-2c0.6-0.8,0.8-1.7,0.5-2.7c-0.1-0.4-0.3-0.7-0.5-1c-0.2-0.3-0.5-0.5-0.8-0.7s-0.8-0.3-1.4-0.4
				c-0.5-0.1-1.2-0.1-2.1,0c-2,0.2-3.7,0.3-5.1,0.3c-1.5,0-2.7-0.1-3.8-0.5c-1.1-0.3-1.9-0.8-2.6-1.6c-0.7-0.7-1.2-1.7-1.6-3
				c-0.3-1-0.4-2-0.3-3c0.1-1,0.4-1.9,1-2.8c0.6-0.9,1.3-1.7,2.3-2.4c1-0.7,2.2-1.3,3.7-1.7c1.5-0.4,2.8-0.6,4.1-0.6
				c1.3,0,2.4,0.3,3.5,0.7c1,0.4,1.9,1.1,2.7,1.9c0.8,0.8,1.3,1.8,1.7,3L262,119.4z"/>
			<path class="st0" d="M286.2,131.7l-0.6-2.6c-0.8,2.3-2.4,3.7-5,4.3c-0.9,0.2-1.8,0.2-2.6,0.1s-1.6-0.5-2.2-0.9
				c-0.7-0.5-1.3-1.1-1.7-1.8c-0.5-0.7-0.8-1.6-1.1-2.6l-2.7-12l4.8-1.1l2.5,11.2c0.5,2.3,1.8,3.2,3.8,2.7c1.2-0.3,2.1-0.9,2.5-1.8
				c0.5-0.9,0.6-2,0.3-3.2l-2.3-10.5l4.8-1.1l4,18.2L286.2,131.7z"/>
			<path class="st0" d="M294.5,139l-4-27.2l4.7-0.7l0.4,2.2c0.9-2,2.4-3.2,4.7-3.5c1.1-0.2,2.3-0.1,3.3,0.2c1.1,0.3,2,0.8,2.8,1.6
				c0.8,0.7,1.5,1.7,2.1,2.9c0.6,1.2,1,2.5,1.2,4.1c0.2,1.4,0.2,2.7,0.1,3.9c-0.2,1.2-0.5,2.3-1,3.2c-0.5,0.9-1.2,1.7-2.1,2.3
				c-0.9,0.6-1.9,1-3.1,1.2c-2.3,0.3-4.2-0.4-5.9-2.1l1.6,11.1L294.5,139z M301.3,125.3c2.8-0.4,3.9-2.5,3.4-6.3
				c-0.2-1.7-0.8-2.9-1.8-3.9c-0.9-0.9-2-1.3-3.2-1.1c-1.2,0.2-2.1,0.8-2.7,1.9c-0.6,1.1-0.9,2.4-0.6,4
				C297,123.9,298.6,125.7,301.3,125.3z"/>
			<path class="st0" d="M313.7,136.2l-2-27.4l4.7-0.3l0.2,2.3c1-1.9,2.7-3,5-3.1c1.2-0.1,2.3,0.1,3.3,0.4s1.9,1,2.7,1.8
				c0.8,0.8,1.4,1.8,1.9,3c0.5,1.2,0.8,2.6,0.9,4.2c0.1,1.4,0,2.7-0.2,3.9s-0.7,2.2-1.3,3.2c-0.6,0.9-1.3,1.6-2.3,2.2
				c-0.9,0.5-2,0.8-3.2,0.9c-2.3,0.2-4.2-0.7-5.7-2.5l0.8,11.2L313.7,136.2z M321.6,123.1c2.8-0.2,4.1-2.2,3.8-6.1
				c-0.1-1.7-0.6-3-1.5-4s-1.9-1.4-3.1-1.4c-1.2,0.1-2.1,0.6-2.9,1.7c-0.7,1-1,2.4-0.9,3.9C317.3,121.4,318.8,123.3,321.6,123.1z"/>
			<path class="st0" d="M342.3,126.6c-1.5,0-2.9-0.3-4-0.8c-1.2-0.5-2.2-1.2-3-2.1c-0.8-0.9-1.4-1.9-1.8-3.1c-0.4-1.2-0.6-2.6-0.6-4
				c0-1.5,0.3-2.8,0.7-4c0.5-1.2,1.1-2.2,2-3.1c0.8-0.8,1.9-1.5,3-1.9c1.2-0.4,2.5-0.7,4-0.6c1.5,0,2.8,0.3,3.9,0.8
				c1.2,0.5,2.1,1.2,2.9,2c0.8,0.9,1.4,1.9,1.8,3.1c0.4,1.2,0.6,2.6,0.6,4.1c0,1.5-0.3,2.8-0.7,4c-0.5,1.2-1.1,2.2-1.9,3.1
				c-0.8,0.8-1.8,1.5-3,1.9C345.1,126.4,343.8,126.6,342.3,126.6z M342.4,122.5c3,0,4.5-1.8,4.6-5.6c0.1-3.8-1.4-5.7-4.4-5.7
				c-3,0-4.5,1.8-4.6,5.6C337.9,120.5,339.4,122.4,342.4,122.5z"/>
			<path class="st0" d="M354,126.3l1.2-18.6l4.6,0.3l-0.1,2.2c0.4-0.6,0.9-1.1,1.4-1.4c0.5-0.3,0.9-0.6,1.4-0.7
				c0.5-0.2,1-0.3,1.4-0.3c0.5,0,1,0,1.5,0l0.6,0l-0.3,5.1c-0.4-0.1-0.9-0.2-1.4-0.2c-3-0.2-4.6,1.2-4.8,4.2l-0.6,9.7L354,126.3z"/>
			<path class="st0" d="M378.4,116.2l4.5,0.5l-0.6,5.3c-0.1,1-0.4,1.9-0.8,2.8c-0.4,0.9-0.9,1.6-1.6,2.2c-0.7,0.6-1.5,1.1-2.5,1.4
				c-1,0.3-2.1,0.4-3.4,0.2c-1.4-0.2-2.5-0.5-3.4-1c-0.9-0.5-1.6-1.1-2.2-1.9c-0.5-0.7-0.9-1.6-1.1-2.5c-0.2-0.9-0.2-1.9-0.1-2.9
				l2-16.6l4.9,0.6l-0.6,5l10.2,1.2l-0.4,3.5l-10.2-1.2l-0.9,7.6c-0.1,1.2,0,2.1,0.3,2.8c0.4,0.7,1,1.1,2,1.2c1,0.1,1.7-0.1,2.3-0.7
				c0.5-0.6,0.9-1.4,1-2.6L378.4,116.2z"/>
			<path class="st0" d="M412.1,135.3l0.2-16.8l-7.9,14.9l-4.8-1.2L399,106l5.4,1.4l0,16.8l7.4-14.9l5.4,1.4l-0.3,16.7l8-14.8
				l5.2,1.3l-13,22.7L412.1,135.3z"/>
			<path class="st0" d="M430.9,141.7c-1.4-0.5-2.6-1.2-3.6-2c-1-0.8-1.7-1.8-2.2-2.9s-0.7-2.3-0.7-3.6c0-1.3,0.2-2.6,0.7-4
				c0.5-1.4,1.1-2.6,2-3.6c0.8-1,1.8-1.8,2.8-2.3c1.1-0.5,2.2-0.8,3.5-0.9c1.3-0.1,2.6,0.2,4,0.7c1.4,0.5,2.5,1.1,3.5,2
				c0.9,0.8,1.7,1.8,2.2,2.8c0.5,1.1,0.7,2.3,0.8,3.5c0,1.3-0.2,2.6-0.7,4.1c-0.5,1.4-1.1,2.6-2,3.6c-0.8,1-1.7,1.8-2.8,2.3
				c-1.1,0.5-2.2,0.8-3.5,0.9C433.6,142.3,432.3,142.1,430.9,141.7z M432.3,137.8c2.8,1,4.9-0.3,6.1-3.9c1.2-3.6,0.4-5.8-2.4-6.8
				c-2.8-1-4.9,0.3-6.1,3.8C428.7,134.5,429.5,136.8,432.3,137.8z"/>
			<path class="st0" d="M442,145.2l7.2-17.2l4.3,1.8l-0.9,2c0.6-0.4,1.2-0.7,1.7-0.9s1.1-0.2,1.6-0.2c0.5,0,1,0.1,1.5,0.2
				c0.5,0.1,0.9,0.3,1.4,0.5l0.6,0.2l-2,4.7c-0.4-0.2-0.8-0.5-1.2-0.6c-2.8-1.2-4.7-0.4-5.9,2.4l-3.8,8.9L442,145.2z"/>
			<path class="st0" d="M463.8,155.1l0-9.3l-3.2,1.2l-2.6,5.3l-4.4-2.2l11.2-22.9l4.4,2.2l-6.1,12.5l8.6-3.7l5.4,2.7l-8.6,3.4
				l0.3,13.3L463.8,155.1z"/>
			<path class="st0" d="M493.6,172.6l1.5-5.2l-7.8-5l-4.3,3.4l-4.7-3l21.2-16.3l5.1,3.3l-6.2,26L493.6,172.6z M498.9,152.8
				L498.9,152.8l-8.2,6.7l5.4,3.5L498.9,152.8z"/>
			<path class="st0" d="M508.3,183.3l1.6-2.1c-2.3,0.9-4.4,0.5-6.5-1c-0.7-0.6-1.3-1.2-1.7-1.9c-0.4-0.7-0.7-1.5-0.7-2.3
				c-0.1-0.8,0-1.7,0.3-2.5c0.3-0.9,0.7-1.7,1.3-2.5l7.4-9.8l3.9,3l-7,9.2c-1.4,1.9-1.3,3.4,0.4,4.7c1,0.8,2,1,3,0.8
				c1-0.2,1.9-0.9,2.6-1.8l6.5-8.6l3.9,3L512,186.1L508.3,183.3z"/>
			<path class="st0" d="M531,185.3c0.5-0.7,0.6-1.4,0.5-2c-0.1-0.6-0.6-1.3-1.4-2c-0.8-0.7-1.4-1.1-2-1.2c-0.5-0.2-1,0-1.4,0.4
				c-0.3,0.4-0.4,0.9-0.2,1.4c0.2,0.6,0.6,1.3,1.1,2.1c0.9,1.4,1.7,2.6,2.3,3.6c0.6,1,1.1,1.8,1.3,2.6c0.2,0.8,0.2,1.5,0,2.2
				c-0.2,0.7-0.7,1.4-1.4,2.2c-1.1,1.3-2.5,1.8-4.3,1.8c-1.8-0.1-3.7-1-5.7-2.8c-1-0.9-1.8-1.8-2.4-2.7c-0.6-0.9-1-1.9-1.2-2.8
				c-0.2-0.9-0.2-1.8,0-2.7c0.2-0.9,0.6-1.7,1.3-2.4l3.8,3.3c-0.6,0.7-0.8,1.4-0.6,2.2c0.2,0.8,0.7,1.6,1.6,2.3
				c0.7,0.6,1.4,1,2.1,1.3c0.7,0.2,1.2,0.1,1.6-0.4c0.4-0.5,0.6-1,0.4-1.6c-0.2-0.6-0.6-1.2-1.2-2.1c-1.1-1.5-1.9-2.8-2.5-3.8
				c-0.5-1.1-0.9-2-1-2.8c-0.1-0.8,0-1.5,0.2-2.1c0.3-0.6,0.6-1.2,1.2-1.8c0.5-0.5,1-0.9,1.7-1.2c0.6-0.3,1.3-0.4,2.1-0.3
				c0.8,0.1,1.7,0.3,2.6,0.7c1,0.4,2,1.1,3.1,2.1c2,1.8,3.1,3.5,3.4,5.1c0.2,1.6-0.3,3.2-1.4,4.7L531,185.3z"/>
			<path class="st0" d="M543.8,198.5l3.2,3.2l-3.7,3.8c-0.7,0.7-1.5,1.3-2.3,1.7c-0.8,0.4-1.7,0.7-2.6,0.7c-0.9,0.1-1.9-0.1-2.8-0.5
				c-1-0.4-1.9-1-2.8-2c-1-1-1.6-1.9-2-2.9c-0.4-1-0.6-1.9-0.5-2.8c0-0.9,0.3-1.8,0.7-2.6c0.4-0.8,1-1.6,1.7-2.3l11.8-11.8l3.5,3.4
				l-3.6,3.6l7.3,7.2l-2.5,2.5l-7.3-7.2l-5.4,5.4c-0.8,0.8-1.3,1.6-1.5,2.4c-0.1,0.8,0.1,1.5,0.9,2.2c0.7,0.7,1.4,1,2.2,0.9
				c0.8-0.1,1.6-0.6,2.4-1.4L543.8,198.5z"/>
			<path class="st0" d="M540,212.2l13.9-12.5l3.1,3.4l-1.6,1.5c0.7-0.1,1.4-0.1,2-0.1c0.6,0.1,1.1,0.2,1.5,0.5
				c0.5,0.2,0.9,0.5,1.2,0.8s0.7,0.7,1,1l0.4,0.5l-3.8,3.4c-0.2-0.4-0.5-0.8-0.8-1.1c-2-2.2-4.1-2.3-6.4-0.3l-7.2,6.5L540,212.2z"/>
			<path class="st0" d="M555.2,230.1c0.3-0.4,0.6-0.8,1.1-1.3c-0.9,0-1.8-0.3-2.7-0.8c-0.9-0.5-1.8-1.2-2.5-2.2
				c-1.3-1.7-2-3.2-1.9-4.6c0.1-1.4,0.8-2.5,1.9-3.5c1-0.8,2-1.3,2.9-1.5c0.9-0.2,1.7-0.1,2.6,0.2c0.8,0.3,1.7,0.8,2.5,1.5
				c0.8,0.7,1.7,1.4,2.6,2.3c0.9,0.9,1.6,1.4,2.1,1.5c0.5,0.2,1,0,1.5-0.4c0.5-0.4,0.7-0.9,0.6-1.6c-0.1-0.7-0.4-1.4-1-2.1
				c-0.7-0.9-1.4-1.4-2.1-1.4c-0.7-0.1-1.4,0.1-2.1,0.5l-2.9-3.6c0.8-0.6,1.6-1,2.4-1.3c0.8-0.3,1.6-0.4,2.5-0.2
				c0.9,0.1,1.7,0.5,2.6,1.1c0.9,0.6,1.8,1.5,2.7,2.6c0.9,1.1,1.6,2.2,1.9,3.2s0.5,1.9,0.4,2.8c-0.1,0.9-0.4,1.7-1,2.5
				c-0.5,0.8-1.3,1.6-2.2,2.3l-9.2,7.4L555.2,230.1z M562.1,224.1c-0.4,0-0.7-0.2-1.2-0.5c-0.4-0.3-1-0.7-1.7-1.3
				c-1.1-0.9-2-1.5-2.7-1.6c-0.7-0.1-1.3,0-1.9,0.5c-1.1,0.9-1.1,1.9-0.1,3.2c0.4,0.5,0.8,0.9,1.4,1.2c0.5,0.3,1,0.5,1.6,0.5
				c0.5,0.1,1.1,0.1,1.6-0.1c0.5-0.1,1-0.4,1.5-0.7L562.1,224.1z"/>
			<path class="st0" d="M559.6,235.9l20.6-15l2.9,4l-20.6,15L559.6,235.9z"/>
			<path class="st0" d="M564.1,242.1l15.4-10.5l2.8,4.1l-15.4,10.5L564.1,242.1z M581.3,230.3l3.8-2.6l2.8,4.1l-3.8,2.6L581.3,230.3
				z"/>
			<path class="st0" d="M574.6,258.3c0.3-0.4,0.8-0.8,1.3-1.1c-0.9-0.2-1.7-0.5-2.6-1.1c-0.8-0.6-1.6-1.5-2.2-2.5
				c-1.1-1.8-1.5-3.4-1.3-4.8c0.3-1.3,1.1-2.4,2.4-3.2c1.1-0.7,2.2-1.1,3.1-1.1c0.9-0.1,1.7,0.1,2.5,0.5c0.8,0.4,1.5,1,2.3,1.8
				c0.7,0.8,1.5,1.7,2.3,2.6c0.8,1,1.4,1.5,1.9,1.8c0.5,0.2,1,0.1,1.5-0.2c0.5-0.3,0.8-0.8,0.8-1.5s-0.3-1.4-0.8-2.2
				c-0.6-1-1.2-1.5-1.9-1.7c-0.7-0.2-1.4-0.1-2.2,0.3l-2.4-3.9c0.8-0.5,1.7-0.8,2.5-1c0.8-0.2,1.7-0.1,2.5,0.1
				c0.8,0.2,1.7,0.7,2.5,1.4c0.8,0.7,1.6,1.7,2.4,3c0.8,1.2,1.3,2.4,1.5,3.4c0.3,1,0.3,2,0.1,2.8c-0.2,0.9-0.6,1.6-1.3,2.4
				c-0.6,0.7-1.5,1.4-2.4,2l-10,6.2L574.6,258.3z M582.2,253.3c-0.3-0.1-0.7-0.3-1.1-0.6c-0.4-0.3-0.9-0.8-1.5-1.5
				c-1-1.1-1.8-1.7-2.4-1.9c-0.6-0.2-1.3-0.1-2,0.3c-1.2,0.7-1.4,1.8-0.5,3.1c0.3,0.5,0.7,1,1.2,1.3c0.5,0.4,1,0.6,1.5,0.7
				c0.5,0.1,1,0.2,1.6,0.1c0.5-0.1,1.1-0.2,1.5-0.5L582.2,253.3z"/>
		</g>
	</g>
	<linearGradient id="SVGID_1_" gradientUnits="userSpaceOnUse" x1="507.0522" y1="546.5883" x2="30.6065" y2="249.1002">
		<stop  offset="0" style="stop-color:#1D3493"/>
		<stop  offset="1" style="stop-color:#030E4E"/>
	</linearGradient>
	<path class="st1" d="M215.2,194.5c-75.4,51.5-113.9,146.8-88.9,240c31.6,118,152.9,188,270.9,156.4
		c96.4-25.8,160.8-111.5,163.9-206.4c-13.3,77.9-70.5,144.7-151.8,166.5c-111.4,29.9-225.9-36.2-255.7-147.6
		C132.7,325.2,159,245.4,215.2,194.5L215.2,194.5z"/>
	<linearGradient id="SVGID_2_" gradientUnits="userSpaceOnUse" x1="227.5851" y1="180.3143" x2="528.9467" y2="491.7471">
		<stop  offset="0" style="stop-color:#F4A01C"/>
		<stop  offset="1" style="stop-color:#D36E00"/>
	</linearGradient>
	<path class="st2" d="M465.6,518.5c68-46.5,102.7-132.4,80.2-216.5c-28.5-106.5-138-169.7-244.4-141.1
		c-87,23.3-145.1,100.6-147.9,186.2c12-70.2,63.6-130.6,137-150.2c100.5-26.9,203.8,32.7,230.7,133.2
		C540,400.6,516.2,472.6,465.6,518.5L465.6,518.5z"/>
	<linearGradient id="SVGID_3_" gradientUnits="userSpaceOnUse" x1="386.2025" y1="411.9442" x2="155.7509" y2="511.9733">
		<stop  offset="0" style="stop-color:#F4A01C"/>
		<stop  offset="1" style="stop-color:#D36E00"/>
	</linearGradient>
	<path class="st3" d="M460.7,440.9c0,0-65.3,30-87.6,42.6c-2.6,1.5-6.3,3.5-9.3,5.3c-9.4,5.7-20.3,10-29,10.8
		c-3.8,0.4-8.2,0.3-12.8-0.3c-7.3-1.1-26.3-4.7-46.4-9.2c-19.7-3.7-39.7-8.1-47.9-9.4c-6.5-1.1-13.4-1-20-0.4
		c-4.4,0.4-8.9,1.2-13.3,2.2c-10.8-13.1-20.1-27.6-27.6-43.3c12.4-3.6,46.9-13.1,68.3-14.2c25.8-1.4,46.5,4.3,67.1,9.3
		c6.2,1.5,16.1,3.1,25.1,4.4c12.6,1.9,26.3,4,33.3,6.8c6.3,2.5,9.1,7.1,8.4,11.1c-1.1,7-9.8,10.7-27.5,12.3
		c-12.1,1.1-46.1,0.8-48.7,0.4c18.7,3.3,39.7,4.7,54,4.1c17.1-0.7,25.8-6.3,28.4-13.1c2.4-6.4-0.2-14.8-8.6-18.1
		c0,0,62.3-16.7,74.2-20.5c2.5-0.8,7.5-1.7,10-1.9c10-0.8,17.1,3.2,18.5,7.8C470.5,430.2,469.4,436.2,460.7,440.9z"/>
	<g>
		<linearGradient id="SVGID_4_" gradientUnits="userSpaceOnUse" x1="186.9337" y1="298.346" x2="232.5714" y2="330.131">
			<stop  offset="0" style="stop-color:#1D3493"/>
			<stop  offset="1" style="stop-color:#030E4E"/>
		</linearGradient>
		<polygon class="st4" points="200,296.4 202.4,302.4 208.5,300.5 205.3,306.1 210.6,309.7 204.3,310.7 204.7,317.1 200,312.7 
			195.3,317.1 195.8,310.7 189.5,309.7 194.7,306.1 191.6,300.5 197.7,302.4 		"/>
		<linearGradient id="SVGID_5_" gradientUnits="userSpaceOnUse" x1="223.5562" y1="258.7937" x2="269.1938" y2="290.5787">
			<stop  offset="0" style="stop-color:#1D3493"/>
			<stop  offset="1" style="stop-color:#030E4E"/>
		</linearGradient>
		<polygon class="st5" points="236.7,256.9 239,262.8 245.1,261 242,266.5 247.2,270.1 240.9,271.1 241.4,277.5 236.7,273.2 
			232,277.5 232.4,271.1 226.1,270.1 231.4,266.5 228.2,261 234.3,262.8 		"/>
		<linearGradient id="SVGID_6_" gradientUnits="userSpaceOnUse" x1="255.8383" y1="288.9184" x2="300.4931" y2="320.0189">
			<stop  offset="0" style="stop-color:#1D3493"/>
			<stop  offset="1" style="stop-color:#030E4E"/>
		</linearGradient>
		<polygon class="st6" points="268.7,287 271,292.9 277,291 273.8,296.5 279,300 272.8,301 273.3,307.2 268.7,303 264.1,307.2 
			264.5,301 258.3,300 263.5,296.5 260.4,291 266.4,292.9 		"/>
		<linearGradient id="SVGID_7_" gradientUnits="userSpaceOnUse" x1="223.3393" y1="355.924" x2="267.994" y2="387.0245">
			<stop  offset="0" style="stop-color:#1D3493"/>
			<stop  offset="1" style="stop-color:#030E4E"/>
		</linearGradient>
		<polygon class="st7" points="236.2,354 238.5,359.9 244.5,358 241.3,363.5 246.5,367 240.3,368 240.8,374.2 236.2,370 
			231.6,374.2 232,368 225.8,367 231,363.5 227.9,358 233.9,359.9 		"/>
		<linearGradient id="SVGID_8_" gradientUnits="userSpaceOnUse" x1="242.7336" y1="317.7605" x2="268.8438" y2="335.9454">
			<stop  offset="0" style="stop-color:#1D3493"/>
			<stop  offset="1" style="stop-color:#030E4E"/>
		</linearGradient>
		<polygon class="st8" points="250.4,316.1 252.2,319.8 256.3,320.4 253.3,323.4 254,327.5 250.4,325.5 246.7,327.5 247.4,323.4 
			244.4,320.4 248.5,319.8 		"/>
	</g>
	<linearGradient id="SVGID_9_" gradientUnits="userSpaceOnUse" x1="361.5243" y1="320.5235" x2="442.1449" y2="320.5235">
		<stop  offset="0" style="stop-color:#1D3493"/>
		<stop  offset="1" style="stop-color:#030E4E"/>
	</linearGradient>
	<path class="st9" d="M362,218.5c0,0,5.1,32.1,33.8,53.3c0,0,7.2,5.9,14.3,9.6c0,0,23.1,11.4,30.2,37.9c2.2,8.3,2.8,27.2-0.4,36.6
		c-1.4-13.3-8.1-39.3-21.5-51c0,0-4.1,14.8,0.4,31.1c0,0,11.8,30,9.7,55.7c0,0-0.8,21.8-6.5,30.9c0,0-4.1-2.8-4.4-21.4
		c0,0,0.4-33.2-12.9-51.3c0,0-8.9,7.5-7,42c0,0,4.4,21.9,0.1,30.7c0,0-11.1-20-13.5-47.7c0,0-2.4-17.9,4.1-35.6
		c0,0,11.8-25.2-7.3-56.8C381.1,282.5,357.9,252,362,218.5"/>
	<linearGradient id="SVGID_10_" gradientUnits="userSpaceOnUse" x1="396.6181" y1="260.0785" x2="421.1394" y2="260.0785">
		<stop  offset="0" style="stop-color:#F4A01C"/>
		<stop  offset="1" style="stop-color:#D36E00"/>
	</linearGradient>
	<path class="st10" d="M421.1,260.1c0,6.8-5.5,12.3-12.3,12.3c-6.8,0-12.3-5.5-12.3-12.3c0-6.8,5.5-12.3,12.3-12.3
		C415.7,247.8,421.1,253.3,421.1,260.1"/>
	
		<linearGradient id="SVGID_11_" gradientUnits="userSpaceOnUse" x1="296.0453" y1="330.258" x2="375.3258" y2="330.258" gradientTransform="matrix(-0.9998 2.118492e-02 2.118492e-02 0.9998 650.3185 -6.9708)">
		<stop  offset="0" style="stop-color:#1D3493"/>
		<stop  offset="1" style="stop-color:#030E4E"/>
	</linearGradient>
	<path class="st11" d="M358.7,229.4c0,0-2.1,29.6-32,53c0,0-7.3,5.9-14.8,9.9c-6.1,3.9-22.8,15-27.6,38.6c-1.7,8.6-3.3,23.9,0.8,35
		c1.6-15,7.4-40.2,20.1-50.6c0,0,4.3,14.4,0.2,30.5c0,0-11,29.6-8.4,54.9c0,0,1.3,21.4,7,30.2c0,0,3.9-2.8,3.8-21.1
		c0,0-1.1-32.6,11.6-50.7c0,0,8.9,7.1,7.8,41.1c0,0-3.8,21.6,0.5,30.1c0,0,10.5-19.8,12.3-47.1c0,0,2-17.6-4.7-34.8
		c0,0-12.1-24.5,6-55.9C341.2,292.6,363.7,260.9,358.7,229.4"/>
	
		<linearGradient id="SVGID_12_" gradientUnits="userSpaceOnUse" x1="334.9531" y1="274.5108" x2="358.575" y2="274.5108" gradientTransform="matrix(-0.9998 2.118492e-02 2.118492e-02 0.9998 650.3185 -6.9708)">
		<stop  offset="0" style="stop-color:#F4A01C"/>
		<stop  offset="1" style="stop-color:#D36E00"/>
	</linearGradient>
	<path class="st12" d="M297.6,275.1c0.1,6.5,5.5,11.7,12.1,11.6c6.5-0.1,11.7-5.5,11.6-12.1c-0.1-6.5-5.5-11.7-12.1-11.6
		C302.7,263.2,297.5,268.6,297.6,275.1"/>
</g>
</svg>
