<?xml version="1.0" encoding="utf-8"?>
<!-- Generator: Adobe Illustrator 24.3.0, SVG Export Plug-In . SVG Version: 6.00 Build 0)  -->
<svg version="1.1" id="Layer_1" xmlns="http://www.w3.org/2000/svg" xmlns:xlink="http://www.w3.org/1999/xlink" x="0px" y="0px"
	 viewBox="0 0 83 83" style="enable-background:new 0 0 83 83;" xml:space="preserve">
<style type="text/css">
	.st0{clip-path:url(#SVGID_2_);}
	.st1{fill:#FFFFFF;}
	.st2{opacity:0.15;fill:#EC9922;enable-background:new    ;}
	.st3{opacity:0.35;fill:#EC9922;enable-background:new    ;}
	.st4{fill:#EC9922;}
</style>
<g>
	<defs>
		<rect id="SVGID_1_" width="83" height="83"/>
	</defs>
	<clipPath id="SVGID_2_">
		<use xlink:href="#SVGID_1_"  style="overflow:visible;"/>
	</clipPath>
	<g class="st0">
		<rect class="st1" width="83" height="83"/>
		<rect class="st2" width="83.4" height="83.4"/>
		<path class="st3" d="M58.4,60.8H25c-4,0-7.2-3.2-7.2-7.2V29.7c0-4,3.2-7.2,7.2-7.2h33.5c4,0,7.2,3.2,7.2,7.2v23.9
			C65.6,57.6,62.4,60.8,58.4,60.8z"/>
		<path class="st4" d="M36.8,41.1l-19-11.4c0-4,3.2-7.2,7.2-7.2h33.5c4,0,7.2,3.2,7.2,7.2l-19,11.4C43.6,42.9,39.8,42.9,36.8,41.1z"
			/>
	</g>
</g>
</svg>
