<?xml version="1.0" encoding="utf-8"?>
<!-- Generator: Adobe Illustrator 24.3.0, SVG Export Plug-In . SVG Version: 6.00 Build 0)  -->
<svg version="1.1" xmlns="http://www.w3.org/2000/svg" xmlns:xlink="http://www.w3.org/1999/xlink" x="0px" y="0px"
	 viewBox="0 0 502.6 712.2" style="enable-background:new 0 0 502.6 712.2;" xml:space="preserve">
<style type="text/css">
	.st0{display:none;}
	.st1{display:inline;fill:#FFFFFF;}
	.st2{fill:url(#SVGID_1_);}
	.st3{fill:#FFFFFF;}
	.st4{fill:url(#SVGID_2_);}
	.st5{fill:url(#SVGID_3_);}
</style>
<g id="BG" class="st0">
	<rect x="-319.2" y="-199.5" class="st1" width="1122" height="1122"/>
</g>
<g id="Object">
	<g>
		<g>
			<linearGradient id="SVGID_1_" gradientUnits="userSpaceOnUse" x1="25.7919" y1="361.5347" x2="457.7527" y2="361.5347">
				<stop  offset="0" style="stop-color:#33348D"/>
				<stop  offset="1" style="stop-color:#000000"/>
			</linearGradient>
			<path class="st2" d="M457.8,252.5c0,119.3-216,434-216,434s-216-314.7-216-434s96.7-216,216-216S457.8,133.2,457.8,252.5z"/>
			
				<ellipse transform="matrix(0.7071 -0.7071 0.7071 0.7071 -101.0107 242.1307)" class="st3" cx="241.8" cy="243" rx="101.5" ry="101.5"/>
		</g>
		<linearGradient id="SVGID_2_" gradientUnits="userSpaceOnUse" x1="48.8425" y1="213.9996" x2="399.1548" y2="213.9996">
			<stop  offset="0" style="stop-color:#33348D"/>
			<stop  offset="1" style="stop-color:#000000"/>
		</linearGradient>
		<path class="st4" d="M62.8,271.5c0-103.6,84-187.6,187.6-187.6c60.6,0,114.4,28.7,148.7,73.2C366.8,100.9,306,63,236.5,63
			C132.8,63,48.8,147,48.8,250.6c0,43.1,14.5,82.7,38.9,114.4C71.9,337.5,62.8,305.5,62.8,271.5z"/>
		<linearGradient id="SVGID_3_" gradientUnits="userSpaceOnUse" x1="190.8387" y1="460.2371" x2="457.7527" y2="460.2371">
			<stop  offset="0" style="stop-color:#33348D"/>
			<stop  offset="1" style="stop-color:#000000"/>
		</linearGradient>
		<path class="st5" d="M190.8,603.9c29.4,49.3,50.9,82.6,50.9,82.6s216-314.7,216-434c0-6.3-0.3-12.4-0.8-18.6
			c-8.5,33.1-20.6,65.4-35.4,96.2c-40.9,85.1-101.3,139.6-165.7,208.7C235.1,561.1,213.4,583.1,190.8,603.9z"/>
	</g>
</g>
</svg>
